HIERARCHY
ROOT Bone
{
	OFFSET 0.000000 0.000000 0.000000
	CHANNELS 6 Xposition Yposition Zposition Zrotation Yrotation Xrotation
	JOINT Bone.001
	{
		OFFSET 0.000000 0.000000 1.000000
		CHANNELS 3 Zrotation Yrotation Xrotation
		JOINT Bone.002
		{
			OFFSET 0.000000 0.000000 0.734388
			CHANNELS 3 Zrotation Yrotation Xrotation
			JOINT Bone.005
			{
				OFFSET 0.000000 0.000000 0.827556
				CHANNELS 3 Zrotation Yrotation Xrotation
				End Site
				{
					OFFSET 0.000000 0.000000 0.869060
				}
			}
		}
	}
}
MOTION
Frames: 70
Frame Time: 0.041667
0.003687 0.000000 0.000000 0.000000 10.915579 0.000000 0.000000 -0.338907 0.000000 -0.000000 -0.520433 0.000000 3.230828 -48.614141 -5.992587 
0.014399 0.000000 0.000000 0.000000 10.915579 0.000000 0.000000 -1.303407 0.000000 -0.000000 -1.996576 0.000000 3.230828 -48.614148 -5.992587 
0.031618 0.000000 0.000000 0.000000 10.915579 0.000000 0.000000 -2.816574 0.000000 -0.000000 -4.299550 0.000001 3.230828 -48.614141 -5.992588 
0.054822 0.000000 0.000000 0.000000 10.915579 0.000000 0.000000 -4.801992 0.000000 -0.000000 -7.297477 0.000002 3.230828 -48.614148 -5.992588 
0.083491 0.000000 0.000000 0.000000 10.915579 0.000000 0.000000 -7.182265 0.000000 -0.000000 -10.854111 0.000003 3.230828 -48.614148 -5.992587 
0.117104 0.000000 0.000000 0.000000 10.915579 0.000000 0.000000 -9.877977 0.000000 -0.000000 -14.828778 0.000004 3.230829 -48.614148 -5.992587 
0.155141 0.000000 0.000000 0.000000 10.915579 0.000000 0.000000 -12.807219 0.000000 -0.000001 -19.077917 0.000005 3.230828 -48.614148 -5.992587 
0.197081 0.000000 0.000000 0.000000 10.915579 0.000000 0.000000 -15.885698 0.000000 -0.000001 -23.458128 0.000006 3.230829 -48.614148 -5.992587 
0.242405 0.000000 0.000000 0.000000 10.915579 0.000000 0.000000 -19.027404 0.000000 -0.000002 -27.829976 0.000007 3.230828 -48.614148 -5.992587 
0.290591 0.000000 0.000000 0.000000 10.915579 0.000000 0.000000 -22.145649 0.000000 -0.000002 -32.061898 0.000009 3.230828 -48.614141 -5.992588 
0.341119 0.000000 0.000000 0.000000 10.915579 0.000000 0.000000 -25.154253 0.000000 -0.000003 -36.033090 0.000010 3.230828 -48.614148 -5.992586 
0.393469 0.000000 0.000000 0.000000 10.915579 0.000000 0.000000 -27.968645 0.000000 -0.000004 -39.635021 0.000011 3.230828 -48.614145 -5.992587 
0.447120 0.000000 0.000000 0.000000 10.915579 0.000000 0.000000 -30.506664 0.000000 -0.000005 -42.770918 0.000013 3.230828 -48.614141 -5.992587 
0.501552 0.000000 0.000000 0.000000 10.915579 0.000000 0.000000 -32.688821 0.000000 -0.000006 -45.353614 0.000014 3.230828 -48.614148 -5.992587 
0.556244 0.000000 0.000000 0.000000 10.915579 0.000000 0.000000 -34.437950 0.000000 -0.000006 -47.301703 0.000015 3.230828 -48.614148 -5.992587 
0.610675 0.000000 0.000000 0.000000 10.915579 0.000000 0.000000 -35.678251 0.000000 -0.000007 -48.534570 0.000015 3.230828 -48.614148 -5.992587 
0.664326 0.000000 0.000000 0.000000 10.915579 0.000000 0.000000 -36.333826 0.000000 0.000000 -48.966360 -0.000000 3.230828 -48.614148 -5.992586 
0.716676 0.000000 0.000000 0.000000 10.915579 0.000000 0.002995 -36.664817 -0.000783 0.000000 -48.532579 -0.000000 3.230828 -48.614148 -5.992589 
0.767204 0.000000 0.000000 0.000000 10.915579 0.000000 0.011857 -36.982852 -0.003137 0.000000 -47.267600 -0.000001 3.230828 -48.614145 -5.992587 
0.815390 0.000000 0.000000 0.000000 10.915579 0.000000 0.026399 -37.288219 -0.007067 0.000001 -45.215644 -0.000001 3.230828 -48.614148 -5.992588 
0.860714 0.000000 0.000000 0.000000 10.915579 0.000000 0.046426 -37.581159 -0.012567 0.000001 -42.410789 -0.000002 3.230828 -48.614148 -5.992588 
0.902654 0.000000 0.000000 0.000000 10.915579 0.000000 0.071738 -37.861900 -0.019625 0.000001 -38.881921 -0.000003 3.230828 -48.614148 -5.992587 
0.940691 0.000000 0.000000 0.000000 10.915579 0.000000 0.102132 -38.130723 -0.028221 0.000001 -34.657674 -0.000004 3.230828 -48.614148 -5.992587 
0.974304 0.000000 0.000000 0.000000 10.915579 0.000000 0.137397 -38.387866 -0.038327 0.000001 -29.771562 -0.000005 3.230828 -48.614145 -5.992588 
1.002973 0.000000 0.000000 0.000000 10.915579 0.000000 0.177317 -38.633582 -0.049911 0.000001 -24.267023 -0.000006 3.230828 -48.614148 -5.992587 
1.026177 0.000000 0.000000 0.000000 10.915579 0.000000 0.221673 -38.868137 -0.062931 0.000001 -18.201872 -0.000007 3.230829 -48.614148 -5.992587 
1.043396 0.000000 0.000000 0.000000 10.915579 0.000000 0.270238 -39.091775 -0.077342 0.000001 -11.651592 -0.000007 3.230828 -48.614141 -5.992587 
1.054109 0.000000 0.000000 0.000000 10.915579 0.000000 0.322784 -39.304747 -0.093091 0.000000 -4.710542 -0.000008 3.230828 -48.614148 -5.992588 
1.057795 0.000000 0.000000 0.000000 10.915579 0.000000 0.379077 -39.507320 -0.110120 -0.000000 2.509409 -0.000009 3.230828 -48.614145 -5.992587 
1.055845 0.000000 0.000000 0.000000 10.915579 0.000000 0.438879 -39.699744 -0.128368 -0.000001 9.883364 -0.000010 3.230829 -48.614148 -5.992586 
1.050126 0.000000 0.000000 0.000000 10.915579 0.000000 0.501950 -39.882281 -0.147767 -0.000002 17.280162 -0.000010 3.230828 -48.614141 -5.992589 
1.040837 0.000000 0.000000 0.000000 10.915579 0.000000 0.568043 -40.055166 -0.168245 -0.000002 24.570668 -0.000011 3.230828 -48.614148 -5.992588 
1.028177 0.000000 0.000000 0.000000 10.915579 0.000000 0.636912 -40.218691 -0.189727 -0.000003 31.635643 -0.000011 3.230828 -48.614148 -5.992587 
1.012343 0.000000 0.000000 0.000000 10.915579 0.000000 0.708305 -40.373088 -0.212134 -0.000004 38.372064 -0.000012 3.230828 -48.614148 -5.992588 
0.993534 0.000000 0.000000 0.000000 10.915579 0.000000 0.781970 -40.518625 -0.235384 -0.000005 44.696772 -0.000011 3.230828 -48.614148 -5.992587 
0.971948 0.000000 0.000000 0.000000 10.915579 0.000000 0.857651 -40.655571 -0.259393 -0.000005 50.547126 -0.000011 3.230828 -48.614148 -5.992587 
0.947784 0.000000 0.000000 0.000000 10.915579 0.000000 0.935089 -40.784139 -0.284072 -0.000005 55.879407 -0.000010 3.230828 -48.614141 -5.992587 
0.921240 0.000000 0.000000 0.000000 10.915579 0.000000 1.014026 -40.904644 -0.309332 -0.000005 60.665303 -0.000008 3.230828 -48.614148 -5.992587 
0.892515 0.000000 0.000000 0.000000 10.915579 0.000000 1.094202 -41.017328 -0.335083 -0.000003 64.887583 -0.000005 3.230828 -48.614141 -5.992587 
0.861805 0.000000 0.000000 0.000000 10.915579 0.000000 1.175354 -41.122435 -0.361232 0.000000 68.535389 0.000000 3.230828 -48.614141 -5.992587 
0.829311 0.000000 0.000000 0.000000 10.915579 0.000000 1.257219 -41.220239 -0.387684 0.014413 71.793553 0.018235 3.230829 -48.614148 -5.992587 
0.795230 0.000000 0.000000 0.000000 10.915579 0.000000 1.339535 -41.310999 -0.414346 0.068614 74.864372 0.083366 3.230829 -48.614151 -5.992587 
0.759761 0.000000 0.000000 0.000000 10.915579 0.000000 1.422036 -41.394976 -0.441123 0.188729 77.763760 0.220800 3.230828 -48.614141 -5.992587 
0.723102 0.000000 0.000000 0.000000 10.915579 0.000000 1.504459 -41.472427 -0.467919 0.426909 80.505575 0.482058 3.230828 -48.614148 -5.992587 
0.685451 0.000000 0.000000 0.000000 10.915579 0.000000 1.586540 -41.543622 -0.494640 0.905559 83.101696 0.988979 3.230828 -48.614148 -5.992587 
0.647007 0.000000 0.000000 0.000000 10.915579 0.000000 1.668015 -41.608829 -0.521190 1.997628 85.561841 2.114002 3.230828 -48.614145 -5.992587 
0.607968 0.000000 0.000000 0.000000 10.915579 0.000000 1.748620 -41.668279 -0.547475 5.640064 87.890485 5.793585 3.230828 -48.614148 -5.992587 
0.568532 0.000000 0.000000 0.000000 10.915579 0.000000 1.828092 -41.722265 -0.573401 -65.988042 90.291604 -65.793423 3.230829 -48.614148 -5.992587 
0.528898 0.000000 0.000000 0.000000 10.915579 0.000000 1.906169 -41.771040 -0.598875 -8.470343 92.249293 -8.231632 3.230828 -48.614148 -5.992589 
0.489263 0.000000 0.000000 0.000000 10.915579 0.000000 1.982590 -41.814879 -0.623805 -5.430887 94.243189 -5.145059 3.230828 -48.614148 -5.992588 
0.449827 0.000000 0.000000 0.000000 10.915579 0.000000 2.057094 -41.854030 -0.648101 -4.452377 96.139393 -4.116955 3.230828 -48.614148 -5.992589 
0.410788 0.000000 0.000000 0.000000 10.915579 0.000000 2.129420 -41.888761 -0.671674 -4.014406 97.937522 -3.627359 3.230828 -48.614148 -5.992588 
0.372344 0.000000 0.000000 0.000000 10.915579 0.000000 2.199312 -41.919343 -0.694434 -3.795945 99.638964 -3.355705 3.230828 -48.614148 -5.992589 
0.334693 0.000000 0.000000 0.000000 10.915579 0.000000 2.266511 -41.946019 -0.716296 -3.687387 101.244789 -3.192849 3.230828 -48.614145 -5.992587 
0.298034 0.000000 0.000000 0.000000 10.915579 0.000000 2.330763 -41.969077 -0.737175 -3.640951 102.755353 -3.091505 3.230828 -48.614145 -5.992588 
0.262565 0.000000 0.000000 0.000000 10.915579 0.000000 2.391811 -41.988779 -0.756986 -3.632291 104.170384 -3.027855 3.230828 -48.614141 -5.992587 
0.228484 0.000000 0.000000 0.000000 10.915579 0.000000 2.449403 -42.005387 -0.775648 -3.647573 105.488904 -2.988610 3.230828 -48.614148 -5.992588 
0.195990 0.000000 0.000000 0.000000 10.915579 0.000000 2.503287 -42.019156 -0.793080 -3.678207 106.709343 -2.965769 3.230828 -48.614148 -5.992587 
0.165280 0.000000 0.000000 0.000000 10.915579 0.000000 2.553211 -42.030368 -0.809204 -3.718461 107.829542 -2.954220 3.230828 -48.614148 -5.992589 
0.136555 0.000000 0.000000 0.000000 10.915579 0.000000 2.598926 -42.039271 -0.823942 -3.764232 108.846912 -2.950516 3.230829 -48.614148 -5.992588 
0.110011 0.000000 0.000000 0.000000 10.915579 0.000000 2.640183 -42.046136 -0.837217 -3.812406 109.758387 -2.952229 3.230828 -48.614148 -5.992587 
0.085847 0.000000 0.000000 0.000000 10.915579 0.000000 2.676735 -42.051228 -0.848956 -3.860472 110.560545 -2.957563 3.230828 -48.614148 -5.992587 
0.064261 0.000000 0.000000 0.000000 10.915579 0.000000 2.708334 -42.054817 -0.859084 -3.906288 111.249677 -2.965120 3.230829 -48.614148 -5.992588 
0.045452 0.000000 0.000000 0.000000 10.915579 0.000000 2.734738 -42.057160 -0.867530 -3.947908 111.821986 -2.973716 3.230827 -48.614145 -5.992589 
0.029618 0.000000 0.000000 0.000000 10.915579 0.000000 2.755698 -42.058526 -0.874221 -3.983511 112.273509 -2.982307 3.230828 -48.614145 -5.992588 
0.016958 0.000000 0.000000 0.000000 10.915579 0.000000 2.770970 -42.059175 -0.879087 -4.011293 112.600388 -2.989859 3.230829 -48.614148 -5.992587 
0.007669 0.000000 0.000000 0.000000 10.915579 0.000000 2.780313 -42.059369 -0.882057 -4.029409 112.798949 -2.995298 3.230829 -48.614148 -5.992589 
0.001950 0.000000 0.000000 0.000000 10.915579 0.000000 2.783481 -42.059373 -0.883063 -4.035908 112.865802 -2.997413 3.230829 -48.614148 -5.992587 
0.000000 0.000000 0.000000 0.000000 10.915579 0.000000 2.783481 -42.059373 -0.883063 -4.035908 112.865802 -2.997413 3.230829 -48.614148 -5.992587 
0.000000 0.000000 0.000000 0.000000 10.915579 0.000000 2.783481 -42.059373 -0.883063 -4.035908 112.865802 -2.997413 3.230829 -48.614148 -5.992587 
